<?xml version="1.0" standalone="no"?>
<!DOCTYPE svg PUBLIC "-//W3C//DTD SVG 1.1//EN" "http://www.w3.org/Graphics/SVG/1.1/DTD/svg11.dtd" >
<svg xmlns="http://www.w3.org/2000/svg">
<metadata>
Created by FontForge 20120731 at Fri Jul 28 11:09:08 2017
 By admin
</metadata>
<defs>
<font id="iconfont" horiz-adv-x="1024" >
  <font-face 
    font-family="iconfont"
    font-weight="500"
    font-stretch="normal"
    units-per-em="1024"
    panose-1="2 0 6 3 0 0 0 0 0 0"
    ascent="896"
    descent="-128"
    x-height="792"
    bbox="1 -127 1024 896"
    underline-thickness="0"
    underline-position="0"
    unicode-range="U+0078-E67E"
  />
<missing-glyph 
 />
    <glyph glyph-name=".notdef" 
 />
    <glyph glyph-name=".notdef" 
 />
    <glyph glyph-name=".null" horiz-adv-x="0" 
 />
    <glyph glyph-name="nonmarkingreturn" horiz-adv-x="341" 
 />
    <glyph glyph-name="x" unicode="x" horiz-adv-x="1001" 
d="M281 543q-27 -1 -53 -1h-83q-18 0 -36.5 -6t-32.5 -18.5t-23 -32t-9 -45.5v-76h912v41q0 16 -0.5 30t-0.5 18q0 13 -5 29t-17 29.5t-31.5 22.5t-49.5 9h-133v-97h-438v97zM955 310v-52q0 -23 0.5 -52t0.5 -58t-10.5 -47.5t-26 -30t-33 -16t-31.5 -4.5q-14 -1 -29.5 -0.5
t-29.5 0.5h-32l-45 128h-439l-44 -128h-29h-34q-20 0 -45 1q-25 0 -41 9.5t-25.5 23t-13.5 29.5t-4 30v167h911zM163 247q-12 0 -21 -8.5t-9 -21.5t9 -21.5t21 -8.5q13 0 22 8.5t9 21.5t-9 21.5t-22 8.5zM316 123q-8 -26 -14 -48q-5 -19 -10.5 -37t-7.5 -25t-3 -15t1 -14.5
t9.5 -10.5t21.5 -4h37h67h81h80h64h36q23 0 34 12t2 38q-5 13 -9.5 30.5t-9.5 34.5q-5 19 -11 39h-368zM336 498v228q0 11 2.5 23t10 21.5t20.5 15.5t34 6h188q31 0 51.5 -14.5t20.5 -52.5v-227h-327z" />
    <glyph glyph-name="icon_delete" unicode="&#xe608;" 
d="M557 367l169 -178q8 -8 8 -18q0 -11 -8 -19t-19 -8q-12 0 -20 8l-167 177l-169 -175q-8 -8 -20 -8q-11 0 -19 7.5t-8 18.5t8 19l171 177l-169 178q-8 8 -8 19t8 18.5t19 7.5q12 0 20 -8l167 -177l170 175q7 8 19 8q11 0 19 -7.5t8 -18.5t-8 -19zM4 384q0 103 40 197.5
t108 162.5t162.5 108t198 40t197.5 -40t162 -108t108.5 -162.5t40.5 -197.5t-40.5 -197.5t-108.5 -162.5t-162 -108t-197.5 -40t-198 40t-162.5 108t-108 162.5t-40 197.5zM967 384q0 93 -36 177t-97 145t-145 97t-176.5 36t-177 -36t-145.5 -97t-97 -145t-36 -177t36 -177
t97 -145t145.5 -97t177 -36t176.5 36t145 97t97 145t36 177z" />
    <glyph glyph-name="icon_fobit" unicode="&#xe609;" 
d="M512.5 895q103.5 0 198.5 -40.5t163 -109t108.5 -163.5t40.5 -198.5t-40.5 -198t-109 -163t-163 -109t-198.5 -40.5t-198.5 40.5t-163 109t-109 163t-40.5 198.5t41 198.5t109 163t163 109t198.5 40.5zM512.5 -63q90.5 0 173.5 35.5t142.5 95t95 142.5t35.5 174
t-35 173.5t-95 142.5t-143 95.5t-173.5 35.5t-173.5 -35.5t-143 -95.5t-95.5 -142.5t-35.5 -173.5t35.5 -174t95.5 -142.5t143 -95t173.5 -35.5zM540 134q24 11 33.5 36t-1.5 49t-36 33.5t-49 -1.5l-1 -1q-24 -11 -33 -35.5t2 -49t36 -33.5t49 2v0zM449 379q0 -27 18.5 -46
t45 -19t45.5 18t19 45l4 260q0 26 -18.5 45t-45 19.5t-45.5 -18t-19 -44.5z" />
    <glyph glyph-name="icon_field" unicode="&#xe60a;" 
d="M40 -15q0 -30 21 -51.5t51 -21.5h799q30 0 51.5 21.5t21.5 51.5v798q0 30 -21.5 51.5t-51.5 21.5h-799q-30 0 -51 -21.5t-21 -51.5v-798zM112 892h799q45 0 77 -32t32 -77v-798q0 -45 -32 -77t-77 -32h-799q-45 0 -76.5 32t-31.5 77v798q0 45 31.5 77t76.5 32zM820 203
q8 0 13 5t5 12.5t-5 13t-13 5.5h-181q-8 0 -13 -5.5t-5 -13t5 -12.5t13 -5h181zM820 311q8 0 13 5.5t5 13t-5 13t-13 5.5h-181q-8 0 -13 -5.5t-5 -13t5 -13t13 -5.5h181zM548 390v-333q0 -15 -9 -20t-22 3l-119 71q-13 8 -22.5 24t-9.5 31v223q-23 8 -34 25l-141 201
q-18 25 -9 42t39 17h509q30 0 37.5 -16t-12.5 -39l-174 -207q-12 -14 -33 -22zM389 420h132q7 0 17 5t15 10l176 203q1 2 -126 2t-254 -1l-128 -1l140 -203q4 -5 13 -10t15 -5zM403 166q0 -5 4.5 -13t8.5 -11l96 -49v291h-109v-218zM820 94q8 0 13 5t5 12.5t-5 13t-13 5.5
h-181q-8 0 -13 -5.5t-5 -13t5 -12.5t13 -5h181z" />
    <glyph glyph-name="icon_enable" unicode="&#xe60b;" 
d="M486 144q-19 -17 -44 -16t-43 20l-187 192q-18 19 -17.5 45.5t19.5 45t45 18t45 -19.5l139 -144l297 333q17 20 43.5 21.5t46 -16t21.5 -44t-16 -45.5l-338 -381q-5 -5 -11 -9zM513 895q104 0 198 -40.5t162.5 -109t109 -163t40.5 -198t-40.5 -198t-109 -162.5
t-163 -108.5t-198 -40.5t-198 40.5t-162.5 109t-108.5 162.5t-40.5 198t40.5 198t109 162.5t162.5 109t198 40.5zM512.5 -61q90.5 0 173.5 35t142.5 95t95 142.5t35.5 173t-35.5 173.5t-95 142.5t-142.5 95t-173.5 35.5t-173 -35.5t-142 -95t-95 -142.5t-35.5 -173.5
t35 -173t95 -142t142.5 -95t173 -35.5z" />
    <glyph glyph-name="icon_cursor" unicode="&#xe60c;" 
d="M820 777l-198 -226h132v-358q0 -36 -26 -62t-62.5 -26t-62 26t-25.5 62v66q44 33 44 88t-44 88v110q0 91 -64.5 155.5t-155.5 64.5t-155.5 -64.5t-64.5 -155.5v-352h-132l198 -220l198 220h-132v352q0 36 26 62t62.5 26t62 -26t25.5 -62v-110q-44 -33 -44 -88t44 -88v-66
q0 -91 64.5 -155.5t155.5 -64.5q90 0 154.5 64t65.5 154v0v360h132z" />
    <glyph glyph-name="icon_search" unicode="&#xe60d;" 
d="M666 654q-88 88 -212 88t-212 -88t-88 -212t88 -212q36 -37 98 -62.5t113.5 -25.5t114 25.5t99 62t62 98.5t25.5 113.5t-25.5 114t-62.5 98.5zM91 592.5q46 110.5 145 176.5t218 66t218 -66t145 -176.5t22.5 -227.5t-107.5 -201q-76 -75 -177 -102t-202 0t-177 102
q-84 84 -107.5 201t22.5 227.5zM917.5 -73q-21.5 0 -36.5 15l-119 119q-15 15 -15 36.5t15 36.5t36.5 15t36.5 -15l119 -119q15 -15 15 -36.5t-15 -36.5t-36.5 -15z" />
    <glyph glyph-name="icon_stop" unicode="&#xe60e;" 
d="M512 895q104 0 198.5 -40.5t162.5 -109t108.5 -163t40.5 -198t-40.5 -198t-109 -163t-163 -109t-198 -40.5t-198 40.5t-163 109t-109 163t-40.5 198t40.5 198.5t109 163t163 108.5t198.5 40.5zM511.5 -62q90.5 0 173.5 35.5t143 95t95 142.5t35 173.5t-35 173.5
t-95 142.5t-142.5 95t-173.5 35.5t-173.5 -35.5t-142.5 -95t-95.5 -142.5t-35.5 -173.5t35.5 -173.5t95.5 -142.5t142.5 -95t173 -35.5zM256 444q-26 0 -44.5 -19t-18.5 -45.5t18.5 -45t45.5 -18.5l513 1q27 0 45.5 18.5t18.5 45t-18.5 45t-45.5 18.5h-514z" />
    <glyph glyph-name="icon_menu_finance" unicode="&#xe60f;" 
d="M893 670q0 67 -47 114t-114 47h-515q-67 0 -114.5 -47t-47.5 -114v-580q0 -67 44.5 -114t107.5 -47h599q62 0 106.5 47t44.5 114v419q0 40 -17 74.5t-47 56.5v30zM860 115q0 -36 -23.5 -62t-56.5 -26h-547q-33 0 -56.5 26t-23.5 62v530q0 37 26 62.5t63 25.5h470
q37 0 63 -25.5t26 -62.5v-2q-14 2 -21 2h-480q-12 0 -20.5 -8.5t-8.5 -21t8.5 -21t20.5 -8.5h480q33 0 56.5 -25.5t23.5 -62.5v-383zM647 358q0 11 -7.5 18.5t-18.5 7.5h-104v19q13 4 23 12l98 78q9 8 9 21q0 9 -5 16q-7 8 -17.5 9.5t-19.5 -5.5l-97 -78q-7 -6 -16.5 -6
t-16.5 6l-97 78q-7 6 -16 6q-13 0 -21 -10q-5 -7 -5 -16q0 -13 10 -21l97 -78q10 -8 23 -12v-19h-104q-11 0 -18.5 -7.5t-7.5 -18.5t7.5 -18.5t18.5 -7.5h104v-52h-104q-11 0 -18.5 -7.5t-7.5 -18.5t7.5 -18.5t18.5 -7.5h104v-90q0 -11 7.5 -18.5t18 -7.5t18 7.5t7.5 18.5
v90h104q11 0 18.5 7.5t7.5 18.5t-7.5 18.5t-18.5 7.5h-104v52h104q11 0 18.5 7.5t7.5 18.5z" />
    <glyph glyph-name="icon_menu_system" unicode="&#xe610;" 
d="M986 469q-4 23 -16.5 36t-29.5 13h-1h-4q-49 0 -84 34.5t-35 82.5q0 21 11 45q8 19 2 40.5t-23 33.5l-2 1l-120 66l-1 1q-12 5 -26 5q-29 0 -49 -20q-16 -16 -43 -34t-50 -18t-51 18.5t-43 34.5q-20 20 -50 20q-13 0 -25 -5h-1l-125 -68l-1 -1q-18 -12 -24 -33.5t3 -40.5
q10 -24 10 -45q0 -48 -34.5 -82.5t-83.5 -34.5h-4h-1q-17 0 -29.5 -13t-17.5 -35q-10 -54 -10 -94q0 -41 10 -94q5 -22 17.5 -35.5t29.5 -13.5l1 1h4q49 0 83.5 -34.5t34.5 -83.5q0 -21 -10 -44q-9 -20 -3 -41t24 -34h1l118 -66h1q12 -5 26 -5q30 0 49 20q17 18 45 36.5
t51 18.5t51.5 -19t44.5 -37q19 -21 50 -21v0q13 0 25 5l1 1l122 67l2 1q17 12 23 33t-2 41q-11 23 -11 44q0 49 35 83.5t84 34.5h4l1 -1q17 0 29.5 13.5t16.5 35.5q10 54 10 94q0 41 -10 93zM377 24l-95 52q13 33 13 61q0 67 -45.5 115.5t-112.5 53.5q-7 42 -7 69.5t7 69.5
q67 5 112.5 54t45.5 115q0 29 -12 61l100 55v0q17 -17 39 -32q49 -35 93 -35q43 0 92 34q21 15 38 32v0l97 -54q-13 -32 -13 -61q0 -66 46 -115t113 -54q7 -42 7 -69.5t-7 -69.5q-67 -5 -113 -53.5t-46 -115.5q0 -28 13 -61l-98 -53q-17 17 -39 33q-50 37 -95 37
q-44 0 -95 -36q-21 -15 -38 -33zM671 376.5q0 65.5 -47 112.5t-114 47t-114 -47t-47 -112.5t47 -112.5t114 -47t114 47t47 112.5zM510 472q40 0 68.5 -28t28.5 -67.5t-28.5 -68t-68.5 -28.5t-68.5 28.5t-28.5 68t28.5 67.5t68.5 28z" />
    <glyph glyph-name="icon_menu_operate" unicode="&#xe611;" 
d="M849 832h-664q-50 0 -85 -35t-35 -85v-476q0 -49 35 -84t85 -35h226v-70h-70q-25 0 -42.5 -17.5t-17.5 -42t17.5 -42t42.5 -17.5h351q25 0 43 17.5t18 42t-18 42t-43 17.5h-70v70h227q49 0 84.5 35t35.5 84v476q0 50 -35.5 85t-84.5 35zM562 102v-55h-90v70h90v-15z
M872 236q0 -10 -7 -17t-16 -7h-664q-10 0 -17 7t-7 17v97h711v-97zM872 387h-711v325q0 10 7 17.5t17 7.5h664q9 0 16 -7.5t7 -17.5v-325z" />
    <glyph glyph-name="icon_menu_account" unicode="&#xe612;" 
d="M688 572.5q0 106.5 -75.5 182t-182 75.5t-182 -75.5t-75.5 -182t75.5 -182t182 -75.5t182 75.5t75.5 182zM276 573q0 64 45.5 109t109.5 45t109 -45t45 -109t-45 -109.5t-109 -45.5t-109.5 45.5t-45.5 109.5zM430.5 418q-116.5 0 -215.5 -57.5t-156.5 -156.5t-57.5 -215
q0 -22 15 -37t36.5 -15t36.5 15t15 37q0 88 44 163.5t119 119t163.5 43.5t163.5 -43.5t119 -119t44 -163.5q0 -22 15 -37t36.5 -15t36.5 15t15 37q0 116 -57.5 215t-156.5 156.5t-215.5 57.5zM999 588q10 0 17 9t7 22t-7 22t-17 9h-236q-10 0 -16.5 -9t-6.5 -22t6.5 -22
t16.5 -9h236zM1001 382q9 0 15.5 9t6.5 22t-6.5 22t-15.5 9h-171q-9 0 -15.5 -9t-6.5 -22t6.5 -22t15.5 -9h171zM1005 176q7 0 12.5 9t5.5 22t-5.5 22t-12.5 9h-110q-7 0 -12.5 -9t-5.5 -22t5.5 -22t12.5 -9h110z" />
    <glyph glyph-name="icon_help" unicode="&#xe613;" 
d="M628.5 634.5q-46.5 41.5 -123.5 41.5q-87 0 -136 -50q-50 -50 -50 -136h83q0 53 21 81q24 33 77 33q43 0 66 -23q23 -24 23 -65q0 -30 -21 -57l-14 -15q-73 -65 -89 -97q-15 -30 -15 -75v-13h84v13q0 30 12 53q11 20 33 40q55 47 66 61q30 39 30 96q0 71 -46.5 112.5z
M491 216q-25 0 -40 -16q-17 -15 -17 -40q0 -24 17 -40q16 -16 40 -16t42 16q17 16 17 40q0 25 -17 40q-16 16 -42 16zM512 892q-103 0 -197.5 -40t-162.5 -108t-108 -162.5t-40 -197.5t40 -197.5t108 -162.5t162.5 -108t197.5 -40t197.5 40t162.5 108t108 162.5t40 197.5
t-40 197.5t-108 162.5t-162.5 108t-197.5 40zM512 -71q-93 0 -177 36t-145 97t-97 145t-36 177t36 177t97 145t145 97t177 36t177 -36t145 -97t97 -145t36 -177t-36 -177t-97 -145t-145 -97t-177 -36z" />
    <glyph glyph-name="icon_menu_close" unicode="&#xe614;" 
d="M968 881v-1008h-118v1008h118zM455 525v-652h-119v652h119zM712 525v-652h-119v652h119zM198 881v-1008h-119v1008h119zM702 629h-356l178 267z" />
    <glyph glyph-name="icon_lock" unicode="&#xe615;" 
d="M175 621h674q56 0 96 -39.5t40 -95.5v-473q0 -56 -40 -95.5t-96 -39.5h-674q-56 0 -96 39.5t-40 95.5v473q0 56 40 95.5t96 39.5zM107 13q0 -28 20 -47.5t48 -19.5h674q28 0 48 19.5t20 47.5v473q0 28 -20 47.5t-48 19.5h-674q-28 0 -48 -19.5t-20 -47.5v-473zM715 553
v204q0 27 -20 47t-48 20h-270q-28 0 -48 -20t-20 -47v-204h-67v204q0 55 39.5 94.5t95.5 39.5h270q56 0 95.5 -39.5t39.5 -94.5v-204h-67zM512 418q56 0 95.5 -39t39.5 -96q0 -56 -39.5 -95.5t-95.5 -39.5t-95.5 39.5t-39.5 95.5t39.5 95.5t95.5 39.5z" />
    <glyph glyph-name="icon_refresh" unicode="&#xe616;" 
d="M468 714v78l199 -126l-199 -126v73q-89 -14 -148.5 -79t-59.5 -151q0 -97 72.5 -165t175.5 -68q99 0 171 65t76 158v39h103v-41q-3 -89 -51 -162.5t-127 -116.5t-172 -43q-95 0 -176 44.5t-128 121.5t-47 168q0 128 89.5 222.5t221.5 108.5z" />
    <glyph glyph-name="icon_label" unicode="&#xe617;" 
d="M483 729h-412q-21 0 -36 -15.5t-15 -37.5t15 -37t36 -15h412q21 0 36.5 15t15.5 37t-15.5 37.5t-36.5 15.5zM483 465h-412q-21 0 -36 -15t-15 -37t15 -37.5t36 -15.5h412q21 0 36.5 15.5t15.5 37.5t-15.5 37t-36.5 15zM483 202h-412q-21 0 -36 -15.5t-15 -37.5t15 -37.5
t36 -15.5h412q21 0 36.5 15.5t15.5 37.5t-15.5 37.5t-36.5 15.5zM792 202l206 263h-412z" />
    <glyph glyph-name="icon_setting" unicode="&#xe618;" 
d="M886 466h-97q-9 29 -23 55l68 69q12 11 12 27t-12 27l-62 62q-11 12 -27 12t-27 -12l-69 -68q-26 14 -55 23v97q0 16 -11 27t-27 11h-88v0q-16 0 -27 -11t-11 -27v-97q-29 -9 -55 -23l-69 68q-11 12 -27 12t-27 -12l-62 -62q-12 -11 -12 -27t12 -27l68 -69
q-14 -26 -23 -55h-97q-16 0 -27 -11t-11 -27v-88q0 -16 11 -27t27 -11h97q9 -29 23 -55l-68 -69q-12 -11 -12 -27t12 -27l62 -62q11 -12 27 -12t27 12l69 68q26 -14 55 -23v-97q0 -16 11 -27t27 -11h88q16 0 27 11t11 27v97q29 9 55 23l69 -68q11 -12 27 -12t27 12l62 62
q12 11 12 27t-12 27l-68 69q14 26 23 55h97q16 0 27 11t11 27v88q0 16 -11 27t-27 11zM512 219q-68 0 -116.5 48.5t-48.5 116.5t48.5 116.5t116.5 48.5t116.5 -48.5t48.5 -116.5t-48.5 -116.5t-116.5 -48.5z" />
    <glyph glyph-name="icon_message" unicode="&#xe619;" 
d="M512.5 -96q40.5 0 69 27.5t28.5 66.5h-195q0 -39 28.5 -66.5t69 -27.5zM915 124l-90 86v284q0 110 -72.5 194t-181.5 104v24q0 24 -17.5 40.5t-42 16.5t-41.5 -16.5t-17 -40.5v-24q-110 -20 -182 -103.5t-72 -194.5v-284l-90 -86q-18 -18 -8 -41.5t36 -23.5h750
q26 0 36 23.5t-8 41.5zM231 135l46 44v315q0 95 69 161t166 66t166 -66.5t69 -160.5v-314l46 -45h-562v0z" />
    <glyph glyph-name="icon_menu_open" unicode="&#xe61a;" 
d="M1009 -95h-1007v118h1007v-118v0zM654 418h-652v119h652v-119v0zM654 161h-652v119h652v-119v0zM1009 675h-1007v118h1007v-118v0zM757 171v356l267 -178z" />
    <glyph glyph-name="icon_download" unicode="&#xe61b;" 
d="M215 -105q-59 0 -100.5 40.5t-41.5 97.5v509q0 58 38.5 98.5t93.5 40.5h90v-82h-90q-20 0 -34 -17t-14 -40v-509q0 -23 17 -39.5t41 -16.5h601q24 0 41 16.5t17 39.5v509q0 23 -14.5 40t-33.5 17h-90v82h90q54 0 93 -41t39 -98v-509q0 -57 -41.5 -97.5t-100.5 -40.5h-601
zM723 458h-2q-16 0 -27 -10l-142 -129v519q0 16 -11.5 28t-28.5 12t-28.5 -12t-11.5 -28v-517l-135 126q-12 12 -28.5 11.5t-27.5 -12.5t-11 -27q0 -18 12 -29l202 -190l6 -4t6 -3l6 -2l2 -1q4 -1 8 -1t8 1l2 1q4 1 5 1q1 1 3 2q3 1 4 2l1 1t1.5 1t1.5 0.5t1 1.5l209 189
q13 12 13 29q0 16 -11 27q-11 13 -27 13z" />
    <glyph glyph-name="icon_dropdown" unicode="&#xe61c;" 
d="M56 553q-33 40 -19.5 68.5t65.5 28.5h820q52 0 65.5 -28.5t-19.5 -68.5l-374 -445q-34 -40 -82 -40t-82 40z" />
    <glyph glyph-name="icon_chdsh-" unicode="&#xe61e;" 
d="M42 464q0 -137 61 -258.5t167 -204.5t240 -114q133 31 239.5 114t167.5 204.5t61 258.5v303q-217 119 -468 119t-468 -119v-303zM716 179q-86 -36 -162 -47q-127 -18 -211 46.5t-102 192.5q-18 130 47.5 214t198.5 103q65 9 153 0l14 -103q-92 16 -144 8
q-65 -9 -97 -63.5t-21 -136.5q12 -83 61.5 -127.5t119.5 -34.5q65 9 129 47z" />
    <glyph glyph-name="icon-dot" unicode="&#xe67e;" 
d="M512 288q-79 0 -135 56.5t-56 135.5t56 135t135 56t135 -56t56 -135t-56 -135.5t-135 -56.5zM512 607q-53 0 -90.5 -37t-37.5 -90t37.5 -90.5t90.5 -37.5t90.5 37.5t37.5 90.5t-37.5 90t-90.5 37zM512 -63q-13 0 -22 9q-10 9 -10 22.5t9 22.5q39 41 86 97.5t100.5 129
t88.5 144t35 118.5q0 119 -84 203t-203 84t-203 -84t-84 -203q0 -57 52.5 -151.5t151.5 -215.5q8 -10 6.5 -23t-11.5 -21.5t-23.5 -7t-21.5 11.5q-218 267 -218 407q0 95 47 176t128 128t176 47t176 -47t128 -128t47 -176q0 -53 -34 -127t-76 -136.5t-97.5 -131t-79.5 -95
t-41 -43.5q-9 -10 -23 -10zM512 -63z" />
  </font>
</defs>
</svg>
